<?xml version="1.0" encoding="UTF-8"?>
<svg width="173px" height="39px" viewBox="0 0 173 39" version="1.1" xmlns="http://www.w3.org/2000/svg" xmlns:xlink="http://www.w3.org/1999/xlink">
    <!-- Generator: Sketch 63.1 (92452) - https://sketch.com -->
    <title>Group 2</title>
    <desc>Created with Sketch.</desc>
    <g id="Page-1" stroke="none" stroke-width="1" fill="none" fill-rule="evenodd">
        <g id="Artboard" transform="translate(-196.000000, -25.000000)">
            <g id="Group-2" transform="translate(196.000000, 25.000000)">
                <g id="Ресурс-1" transform="translate(0.000000, 0.550001)">
                    <path d="M115.720158,29.461992 L115.483411,29.2246593 L115.483411,24.4677752 C115.663012,24.4677752 115.846695,24.4411776 116.030377,24.4411776 C116.863073,24.4411776 117.69985,24.480051 118.528463,24.4289017 C119.429967,24.4045692 120.313617,24.1713804 121.110227,23.7475932 C122.199622,23.1358688 123.049474,22.1713768 123.520553,21.012129 C123.583822,20.8668651 123.538922,20.6786357 123.581781,20.5210958 C123.865469,19.49811 123.828732,19.49811 123.726686,18.559009 C123.703406,18.0464216 123.603655,17.5402227 123.430753,17.0572658 C123.198088,16.4966696 122.991955,15.9360733 122.528666,15.5186951 C122.293961,15.3140979 122.144973,15.019478 121.865367,14.8435245 C121.612976,14.6699145 121.371675,14.4806328 121.142882,14.2767903 C120.759189,13.9698946 120.277532,13.867596 119.838734,13.6998263 C119.226978,13.4742953 118.564221,13.4260786 117.926392,13.5607002 C117.003896,13.7284699 116.071196,13.9698946 115.403815,14.7269041 C115.209928,14.945823 114.942567,15.0726733 114.773171,15.3406956 C114.603774,15.6087179 114.364987,15.7949013 114.207836,16.0649695 C113.799785,16.7036203 113.522297,17.4171396 113.391468,18.1641365 C113.288848,18.924748 113.248575,19.6925106 113.271054,20.4597167 C113.256767,26.4237241 113.271054,32.3897775 113.271054,38.4131181 C112.430195,38.4622214 111.583213,38.4274399 110.738272,38.4335778 C109.893331,38.4398533 109.032063,38.4335778 108.127936,38.4335778 L108.127936,37.694982 C108.127936,31.5079637 108.113649,25.3229913 108.142222,19.138019 C108.130241,17.9670315 108.325804,16.8032166 108.719802,15.7007866 C109.005957,14.8833931 109.375269,14.0976927 109.821899,13.3561031 C110.242063,12.6740451 110.736255,12.0407107 111.295443,11.4676712 C111.907719,10.8538797 112.673064,10.4078579 113.336363,9.85544553 C114.189468,9.68153794 114.875217,9.09639004 115.756894,8.94089619 C116.354884,8.83450567 116.94471,8.73629903 117.546781,8.64832225 C117.993742,8.58898907 118.438663,8.56443741 118.885624,8.521472 C119.18564,8.49078243 119.43055,8.63809239 119.701992,8.68105779 C119.973435,8.7240232 120.261204,8.57875921 120.538769,8.80177012 C120.657143,8.89997676 121.012263,8.74243694 121.091859,8.84064358 C121.295951,9.09843601 121.602089,8.86724121 121.824549,9.06570047 C122.000068,9.21914834 122.283756,9.24574597 122.512339,9.33986067 C123.21845,9.60982411 123.886106,9.97164948 124.498154,10.4160418 C125.290031,11.0298333 126.08599,11.6067973 126.651325,12.4620134 C127.088081,13.1126324 127.590148,13.720286 127.896286,14.4506979 C128.236182,15.2729231 128.509195,16.1213566 128.712654,16.9877028 C128.902459,17.7876777 128.775922,18.5733308 128.83715,19.3630759 C128.83715,19.4858342 128.83715,19.6085925 128.83715,19.7313508 C128.877774,20.4611969 128.790039,21.1925183 128.577953,21.8918969 C128.374455,22.5428822 128.130426,23.1804311 127.847304,23.8007884 C127.319318,24.9842712 126.54885,26.04315 125.585964,26.9086194 C124.69325,27.7125 123.65933,28.3431288 122.53683,28.7684076 C122.064314,28.9419033 121.579185,29.078705 121.085736,29.177602 C120.538769,29.2983143 119.981598,29.2123835 119.453,29.322866 C118.193753,29.5827044 116.94471,29.3515096 115.720158,29.461992 Z" id="Path" fill="#00CAFE"></path>
                    <path d="M165.0696,9.11889573 L165.287979,9.3378147 L165.287979,13.9494348 C165.110419,13.9494348 164.926736,13.9780784 164.743053,13.9780784 C163.95934,13.9780784 163.175627,13.9964922 162.391914,13.9780784 C161.275228,13.9563489 160.177887,14.2721787 159.242774,14.8844439 C158.765199,15.1872477 158.248846,15.4982354 157.96924,16.0731534 C157.779435,16.4598421 157.450847,16.7769677 157.307982,17.1984379 C157.175322,17.5851265 156.958985,17.9656772 156.930412,18.3625957 C156.820202,19.8131896 156.940617,21.2269561 157.810048,22.4831827 C158.153598,23.0082481 158.583531,23.4710687 159.081542,23.8519377 C159.693817,24.3000055 160.367321,24.7398894 161.20818,24.7501193 C161.524523,24.7501193 161.836783,24.9035672 162.175576,24.8892454 C163.245018,24.8380961 164.112409,24.696924 165.032864,23.9828799 C166.122715,23.1378936 166.979901,22.0821722 167.202362,20.6418082 C167.504418,20.3308205 167.286039,19.9154882 167.42074,19.5533512 C167.539114,19.2321337 167.494213,18.8413531 167.494213,18.4812621 C167.494213,12.564312 167.494213,6.64872593 167.494213,0.734503829 L167.494213,0 L172.490385,0 L172.490385,0.724273971 C172.490385,7.08178994 172.490385,13.4393059 172.490385,19.7968219 C172.490385,20.3205906 172.541408,20.8484513 172.34548,21.3558523 C172.149552,21.8632533 172.129142,22.3788381 171.937296,22.8821471 C171.597282,23.7996321 171.155726,24.6760081 170.620903,25.494853 C170.288688,26.0099365 169.905061,26.4898006 169.475947,26.9270331 C169.021091,27.3731075 168.524186,27.7739452 167.992198,28.1239266 C167.471934,28.4563351 166.925942,28.746427 166.359462,28.9914186 C166.052146,29.146224 165.726364,29.2610455 165.390025,29.3330958 C165.071641,29.390383 164.777749,29.6440835 164.40222,29.5908883 C164.049141,29.9182437 163.585852,29.6522674 163.177668,29.824129 C162.822548,29.971439 162.3613,29.8793703 161.953116,29.8855082 C161.173484,29.8855082 160.422426,29.6665892 159.650958,29.5908883 C159.399925,29.3392337 159.038682,29.466084 158.740708,29.3044522 C158.442734,29.1428205 158.105982,29.0609816 157.795762,28.9279934 C157.500578,28.8155196 157.215228,28.6786505 156.942657,28.5187991 C156.412079,28.1836456 155.901646,27.8174651 155.414008,27.4221583 C154.947332,27.0238929 154.513265,26.5887523 154.115983,26.1209203 C153.776898,25.7393058 153.486867,25.3165863 153.252674,24.8626477 C153.048582,24.4534534 152.762854,24.1076842 152.619989,23.6514325 C152.498631,23.2389692 152.345088,22.8367175 152.160782,22.4484012 C152.005672,22.1353675 152.209764,21.7630006 151.913831,21.517484 C151.940363,20.9896234 151.699534,20.4944982 151.758721,19.9564077 C151.803621,19.5472133 151.758721,19.1236972 151.758721,18.706319 C151.782323,17.4758276 152.060302,16.2636241 152.575089,15.1463283 C153.295534,13.6118495 153.544526,13.1003566 154.599681,12.0773708 C155.083379,11.6088433 155.520136,11.0830285 156.101798,10.7311214 C156.53209,10.4309206 156.998363,10.1862086 157.489624,10.0027555 C157.532676,9.98798998 157.573791,9.96806812 157.612079,9.94342231 C158.265174,9.52195215 159.040723,9.48103271 159.750963,9.25188389 C160.188427,9.13868226 160.640815,9.09450496 161.091848,9.1209417 C162.434773,9.11684976 163.755248,9.11889573 165.0696,9.11889573 Z" id="Path" fill="#00CAFE"></path>
                    <path d="M150.301504,29.2267053 L150.097412,29.4313025 L145.158386,29.4313025 L145.158386,28.7049825 C145.158386,25.564416 145.189,22.4238495 145.140018,19.283283 C145.131016,18.3322505 144.89147,17.3976748 144.442023,16.5600947 C144.020508,15.7771249 143.44328,15.0891428 142.746019,14.5386747 C142.133743,14.0455955 141.445953,13.8941936 140.747958,13.6609528 C140.339177,13.5287196 139.905572,13.4923213 139.480547,13.5545623 C137.743724,13.7816652 136.333448,14.5263989 135.415035,16.1263487 C135.004073,16.7865673 134.726684,17.5213824 134.598667,18.2889408 C134.381169,19.7244886 134.748934,21.1873947 135.619127,22.3481485 C136.364062,23.3711344 137.411054,23.8417079 138.496824,24.2713619 C138.939703,24.4473155 139.474424,24.4207178 139.970368,24.4329937 C140.945927,24.4554994 141.921487,24.4329937 142.92562,24.4329937 L142.92562,29.2573949 L142.721528,29.4497162 C141.629636,29.4497162 140.505089,29.4722219 139.382583,29.4374404 C138.974399,29.4251645 138.553969,29.2819465 138.119253,29.2901304 C137.72009,29.2858231 137.322546,29.2384936 136.933479,29.1489584 C136.620541,29.0852847 136.316324,28.9843148 136.02731,28.8482005 C135.331357,28.5167531 134.598667,28.2794204 133.953736,27.8252147 C133.706104,27.6465332 133.463235,27.4637597 133.225127,27.2768943 C132.948565,27.0961757 132.6932,26.8847888 132.463864,26.646735 C131.967921,26.0329435 131.400545,25.4621174 130.986238,24.7623951 C130.489801,23.918853 130.095174,23.01913 129.810669,22.0821722 C129.710663,21.7548168 129.671886,21.4070016 129.580045,21.0735082 C129.296357,20.0505224 129.43718,19.0029849 129.455548,17.9697692 C129.469835,17.2148056 129.733114,16.4823478 129.937206,15.7478439 C130.28008,14.5202609 130.939297,13.431804 131.684233,12.4333698 C132.188927,11.7818117 132.782526,11.2046507 133.447588,10.7188456 C134.050728,10.2560979 134.703016,9.86156049 135.392584,9.54241186 C136.099554,9.22716508 136.833986,8.97786746 137.586573,8.79767818 C137.979279,8.71851491 138.378046,8.67333724 138.77847,8.66264405 C139.053995,8.64218433 139.327478,8.52556395 139.594838,8.53170186 C139.990777,8.53170186 140.386715,8.62172461 140.782654,8.66878196 C141.178592,8.71583931 141.554122,8.55625352 141.896996,8.81609192 C143.095016,8.89588482 144.125681,9.45648105 145.150222,10.0068474 C145.675679,10.2657274 146.153834,10.6115702 146.56458,11.0298333 C146.803367,11.2917176 147.115628,11.4881309 147.366661,11.7275096 C147.763578,12.1262443 148.106653,12.5754092 148.387121,13.0635291 C148.93817,13.9801244 149.474932,14.9049036 149.742292,15.962671 C149.844338,16.3718653 149.946384,16.7626459 150.032103,17.1677483 C150.156599,17.7406203 150.052512,18.3298602 150.18109,18.8740886 C150.385182,19.7190749 150.289259,20.5558774 150.297422,21.3947257 C150.321913,23.7987425 150.297422,26.2048051 150.297422,28.6088218 L150.301504,29.2267053 Z" id="Path" fill="#00CAFE"></path>
                    <path d="M25.6686494,29.2860385 L21.7194694,29.2860385 L21.7194694,26.5976317 C21.6139039,26.6326568 21.513118,26.6807689 21.4194542,26.7408497 C21.170462,26.9761365 20.9235107,27.2155151 20.6908458,27.4671697 C19.9481629,28.2409725 19.0413912,28.8374269 18.03765,29.2123835 C17.5666111,29.3904244 17.0811075,29.5273317 16.5865559,29.6215778 C15.9748017,29.7270592 15.3535707,29.7668396 14.7334007,29.7402442 C13.6918803,29.7087693 12.6653857,29.4825619 11.7067165,29.0732574 C10.4154795,28.5703777 9.26841623,27.7550434 8.36777154,26.6999303 C7.40281109,25.6158043 6.69837017,24.3245153 6.30848337,22.9251126 C6.18602818,22.456585 6.1370461,21.9696438 6.00438631,21.4929324 C5.74110764,20.5640612 5.91458583,19.6188223 5.86560376,18.6817673 C5.84111272,18.2091479 6.05949115,17.7713099 6.1064323,17.3171042 C6.16381339,16.835179 6.28317839,16.3627265 6.46155236,15.9115217 C6.87378852,14.8195839 7.44758869,13.7960501 8.16367955,12.8752997 C8.7535172,12.1714136 9.43677604,11.5518608 10.1943948,11.0339252 C10.9087168,10.5019726 12.0128545,10.1071 12.8598362,9.84521567 C13.8905008,9.52604409 14.9334108,9.52399812 15.97428,9.58537727 C16.6343922,9.6559615 17.2810792,9.82061694 17.8947856,10.0743645 C18.9491316,10.4425551 19.9045556,11.0495749 20.686764,11.8482219 C20.9255516,12.0937385 21.1684211,12.3372092 21.4174133,12.5745419 C21.5021817,12.6289848 21.5942728,12.6710106 21.6908966,12.6993462 L21.6908966,10.1071 C21.71469,10.0785672 21.7406167,10.0518925 21.7684515,10.0273072 C21.7869326,10.0138417 21.8089059,10.0060255 21.83172,10.0048015 L25.6625267,10.0048015 L25.6686494,29.2860385 Z M21.4296588,19.8295574 C21.4274455,19.3685346 21.3857942,18.9085514 21.3051627,18.4546645 C21.2095699,17.9611419 21.0568275,17.4804949 20.8500376,17.0224843 C20.3602168,15.9258435 20.10102,15.6189477 19.1009692,14.6675709 C18.2335783,13.8491822 17.1559726,13.5504704 16.023262,13.4052064 C15.6314054,13.3540571 15.2313851,13.4624936 14.8334057,13.5156888 C14.2710162,13.6178001 13.7269278,13.8032894 13.2190381,14.0660552 C12.3414426,14.4629737 11.745494,15.2322591 11.157709,15.9708548 C10.9654653,16.2529492 10.8123559,16.559926 10.7025839,16.8833582 C10.5576786,17.2393573 10.4597144,17.6158161 10.3148091,17.9738611 C10.1699038,18.3319062 10.3760367,18.6919972 10.1107171,18.9968469 C10.0739806,19.0398124 10.0984716,19.1421109 10.1107171,19.2137199 C10.163781,19.7333967 9.96989365,20.2755792 10.2556224,20.7727504 C10.3331801,21.6698457 10.6357718,22.5327127 11.1352589,23.2811116 C11.7733517,24.3585862 12.7788486,25.1681725 13.9660148,25.5603241 C14.7823827,25.8263004 15.6538555,26.1741156 16.5518603,25.7649212 C17.221282,25.7649212 17.7866168,25.4743933 18.368279,25.1838653 C19.2024732,24.7841899 19.8978085,24.1427269 20.3642986,23.3424908 C20.9949429,22.2294822 21.5194593,21.0571404 21.4296588,19.8295574 Z" id="Shape" fill="#FFFFFF" fill-rule="nonzero"></path>
                    <path d="M104.307334,29.2860385 L100.045893,29.2860385 L100.045893,28.5535806 C100.045893,24.9444866 100.045893,21.3360746 100.045893,17.7283445 C100.045893,17.1350127 99.8581282,16.5805544 99.7417958,16.0117743 C99.6805682,15.7192003 98.9825736,14.947869 98.7580724,14.661433 C98.3192746,14.1008367 97.6825076,13.9555728 97.0763544,13.7386998 C96.9398908,13.6989787 96.7979048,13.6817048 96.6559249,13.6875505 C96.1661042,13.6875505 95.6762834,13.6711827 95.1885035,13.6875505 C94.3288251,13.7272065 93.508241,14.059139 92.8618549,14.6286974 C92.0985508,15.2690866 91.6964896,16.105889 91.4964795,17.0838634 C91.4272348,17.3799925 91.3869066,17.682175 91.3760652,17.9861369 C91.3760652,21.6184186 91.3760652,25.2513823 91.3760652,28.885028 L91.3760652,29.2717167 L87.1901385,29.2717167 C87.0697242,28.6456493 87.0207422,4.14104666 87.1370746,1.03730764 L91.331165,1.03730764 C91.3209604,1.03730764 91.3413696,1.03730764 91.3536151,1.0618593 C91.3667331,1.08131335 91.3744789,1.1039025 91.3760652,1.12733039 L91.3760652,11.269212 C91.5550506,11.3649178 91.7761459,11.3251575 91.9107862,11.1730513 C92.3649992,10.8133976 92.8422366,10.4839722 93.3394301,10.1868929 C93.8496601,9.89227302 94.4394859,9.75519292 94.9966571,9.58946921 C95.5934675,9.4208818 96.2167812,9.36742185 96.833485,9.43192939 C98.0906916,9.55468769 99.3254482,9.78792847 100.454077,10.4365015 C101.905043,11.2563597 103.018781,12.5657031 103.597093,14.1315263 C103.817513,14.6880306 103.931804,15.2649946 104.131814,15.8214989 C104.268764,16.3005404 104.325997,16.7989383 104.301211,17.2966445 C104.313456,21.2781054 104.307334,25.2493364 104.307334,29.2860385 Z" id="Path" fill="#FFFFFF"></path>
                    <path d="M51.9985569,10.0252612 L51.9985569,12.6318291 C52.4740912,12.1367039 52.9353391,11.6763603 53.3741369,11.1996489 C54.0496814,10.4528693 54.9170723,10.0313991 55.8477318,9.71631946 C56.1620279,9.62378285 56.4859851,9.56816872 56.8130869,9.55059575 C57.2090254,9.51376826 57.6070047,9.33372275 57.9988614,9.42988342 C58.6499148,9.58946921 59.3213774,9.62015879 59.97039,9.80838818 C60.5808233,9.99015299 61.1592349,10.2662689 61.6847627,10.6267768 C62.2069608,10.9408255 62.6681565,11.3470169 63.0460562,11.8257162 C63.4333254,12.3152942 63.7807197,12.8352809 64.0848845,13.3806547 C64.3949526,14.0663259 64.6316605,14.7830083 64.7910427,15.5186951 C65.1318764,16.8485767 65.0584032,18.1784583 65.0624851,19.5267536 C65.0624851,22.7655268 65.0624851,26.0042999 65.0624851,29.2717167 L60.8398218,29.2717167 C60.8398218,29.1203148 60.8132899,28.9341313 60.8132899,28.7499939 C60.8132899,25.0426932 60.83574,21.3353926 60.8010444,17.6301379 C60.784717,16.0629236 60.1377454,14.7657775 58.7601245,13.9330671 C58.4203346,13.74908 58.0540151,13.6193083 57.6743551,13.5484244 C57.4069946,13.4849993 57.1294295,13.5361486 56.8477825,13.4113443 C56.606954,13.3049538 56.3028569,13.4768154 56.0314146,13.5156888 C55.6201806,13.5686215 55.2166611,13.6702662 54.8293128,13.8184927 C53.9047761,14.1806296 53.3618914,14.6082377 52.8700297,15.4818676 C52.3871928,16.3091377 52.1335405,17.2506805 52.1352985,18.2091479 C52.1516259,21.8918969 52.1352985,25.5746459 52.1352985,29.2799006 L47.9616174,29.2799006 C47.8371212,28.6865688 47.7860982,13.1924253 47.9044716,10.0477669 L51.9985569,10.0252612 Z" id="Path" fill="#FFFFFF"></path>
                    <path d="M45.2104573,29.2880844 L41.2653592,29.2880844 L41.2653592,26.7265279 C40.7163518,27.2748483 40.2306128,27.7495137 39.7612012,28.236455 C39.0264701,29.0016484 38.0937697,29.3453717 37.093719,29.607256 C36.2038779,29.8425428 35.3160777,29.7443361 34.4405231,29.7177385 C33.8461588,29.6749819 33.2638602,29.5281814 32.7200276,29.2839925 C32.1939859,29.0553799 31.693271,28.7721735 31.2260743,28.4390062 C30.4595246,27.8893349 29.8227288,27.177627 29.3606735,26.3541611 C29.0108844,25.8186514 28.7496838,25.2300135 28.5871649,24.6109932 C28.5259373,24.3450169 28.3830729,24.0954083 28.3483772,23.829432 C28.2728632,23.3875021 28.2749041,22.9312505 28.1871446,22.4934125 C27.921825,21.1696689 28.0810167,19.8336494 28.0524439,18.5037678 C28.023871,17.1738862 28.0524439,15.8440046 28.0524439,14.5284448 L28.0524439,10.0252612 L32.3138846,10.0252612 L32.3138846,10.5592598 C32.3138846,13.9228372 32.3322529,17.2843687 32.2995981,20.6459001 C32.3226465,21.3149234 32.387402,21.9818475 32.4934855,22.6427685 C32.5547131,23.2115486 32.8812603,23.7496391 33.2180121,24.2488562 C33.7600476,25.0262197 34.5829273,25.5612412 35.512006,25.7403696 C36.0936682,25.8713118 36.736558,25.783335 37.3488339,25.7567373 C37.6252168,25.7453191 37.8968298,25.6807208 38.1488745,25.566462 C38.6161311,25.3835126 39.0557379,25.1363103 39.4550633,24.8319581 C40.1275145,24.2519368 40.6038619,23.4770287 40.8183977,22.6141249 C40.8837459,22.3681368 40.9321616,22.1179394 40.9633031,21.8652992 C40.9877941,21.6218286 40.9633031,21.374266 40.9633031,21.1287494 L40.9633031,10.0252612 L45.2002527,10.0252612 L45.2104573,29.2880844 Z" id="Path" fill="#FFFFFF"></path>
                    <path d="M81.0102331,23.4161458 L85.445152,23.4161458 C85.5839346,23.684168 85.4839295,23.9194548 85.3512697,24.1465576 C84.9941087,24.7603491 84.7675666,25.4334738 84.3430553,26.0186217 C84.1976836,26.2333907 84.0262984,26.4292533 83.8328253,26.6017236 C83.6409788,26.7592635 83.6573062,27.1111706 83.3327999,27.1254924 C82.8665952,27.6338422 82.331396,28.0739434 81.7429233,28.4328683 C81.3102483,28.7070285 80.1734559,29.1264527 79.6836352,29.32082 C79.1611597,29.5254172 78.5999067,29.5110954 78.0876358,29.7300143 C77.94594,29.7637845 77.7991984,29.7707234 77.6549608,29.750474 C76.9937027,29.750474 76.3324447,29.750474 75.6711867,29.750474 C74.4001746,29.7047566 73.1531447,29.3903101 72.0118173,28.8277408 C70.7461987,28.2290108 69.6304029,27.3537395 68.7463455,26.2661843 C67.8775295,25.2536878 67.2413936,24.0620842 66.8829856,22.7757566 C66.7054256,22.1087699 66.5074564,21.4233693 66.5319474,20.7052333 C66.5242337,20.4016392 66.4768899,20.1003654 66.3911239,19.8090977 C66.3054053,19.4367309 66.5319474,19.1216512 66.5503157,18.7656521 C66.568684,18.4096531 66.4074513,18.0352403 66.6890982,17.7222066 C66.7523668,16.6992208 67.1319779,15.7519359 67.5830211,14.8578463 C67.9974568,14.0455625 68.5206924,13.2938727 69.1382021,12.6236452 C69.933266,11.7801167 70.8587936,11.0706084 71.8791575,10.5224323 C72.2806912,10.3136142 72.7018006,10.1450276 73.1363642,10.0191233 C73.5539469,9.88966478 73.9784447,9.78378994 74.4078572,9.70199766 C74.9757555,9.58341621 75.5493193,9.49395915 76.1263118,9.43397537 C76.5344958,9.39305593 76.961048,9.33986067 77.395764,9.53831992 C77.7406794,9.69585974 78.2121319,9.44011328 78.5733747,9.70813557 C79.7693538,9.79815832 80.7938956,10.3689844 81.828642,10.8968451 C82.1673836,11.1080326 82.4851762,11.3512491 82.7776697,11.6231651 C82.9817617,11.7827508 83.0960532,12.056911 83.3899457,12.0916926 C83.4389277,12.347439 83.6491425,12.4804272 83.7981297,12.6563807 C84.5575168,13.5243458 85.131889,14.5387736 85.4859704,15.6373615 C85.49369,15.7153738 85.4888665,15.7941227 85.471684,15.8706022 L81.0061512,15.8706022 C80.6714404,15.4920975 80.3469341,15.0706273 79.967323,14.7105363 C79.5835623,14.301429 79.1155603,13.9809757 78.5958249,13.7714353 C78.1202905,13.6118495 77.6692472,13.362241 77.1365671,13.3827007 C76.9324751,13.3827007 76.7283832,13.2312988 76.5365367,13.2538045 C75.2385116,13.4031604 73.9955914,13.6916424 72.9955407,14.6409733 C72.4616762,15.1541022 71.9965393,15.7345554 71.611797,16.3677734 C71.3912158,16.7645494 71.2205194,17.1871925 71.103608,17.6260459 C70.7830833,18.5800568 70.6894312,19.5959655 70.8301247,20.5927048 C70.9954392,21.6156907 71.2852498,22.6386765 71.9709989,23.5020766 C72.9914588,24.7849008 73.6608806,25.3536809 74.9915603,25.783335 C75.4589386,25.9139847 75.9370716,26.0023158 76.4202043,26.0472653 C76.9916618,26.1229663 77.5610785,25.8917715 78.1162087,25.7342317 C79.2060599,25.4273359 79.9775276,24.6600965 80.7183815,23.8601216 C80.7775682,23.7987425 80.7816501,23.690306 80.8285912,23.614605 C80.881977,23.5422067 80.9428641,23.4756824 81.0102331,23.4161458 L81.0102331,23.4161458 Z" id="Path" fill="#FFFFFF"></path>
                    <path d="M0,1.02298583 L4.21245865,1.02298583 L4.21245865,29.2573949 C4.21245865,29.2573949 4.21245865,29.2696707 4.18796761,29.2839925 C4.17052504,29.298561 4.14927124,29.3077938 4.12674001,29.3105901 L0,29.3105901 L0,1.02298583 Z" id="Path" fill="#FFFFFF"></path>
                </g>
            </g>
        </g>
    </g>
</svg>