<?xml version="1.0" encoding="UTF-8"?>
<svg width="50px" height="47px" viewBox="0 0 50 47" version="1.1" xmlns="http://www.w3.org/2000/svg" xmlns:xlink="http://www.w3.org/1999/xlink">
    <!-- Generator: sketchtool 61 (101010) - https://sketch.com -->
    <title>FFB265FD-0BA2-415A-8EBD-EF9F8C44131E</title>
    <desc>Created with sketchtool.</desc>
    <g id="Page-1" stroke="none" stroke-width="1" fill="none" fill-rule="evenodd">
        <g id="Artboard" transform="translate(-232.000000, -1469.000000)">
            <g id="Group-5" transform="translate(0.000000, 1419.000000)">
                <g id="home" transform="translate(232.000000, 50.000000)">
                    <path d="M0.696614583,23.0721029 L5.41259771,25.3234864 C5.78613281,25.5041504 6.23209635,25.4402669 6.53971354,25.1615397 L7.91625979,23.9237468 L7.91625979,44.9409994 C7.92724604,45.5273438 8.39965823,46.0005697 8.98640948,46.0119629 L19.6870931,46.0119629 C20.2681478,45.9981282 20.7307943,45.5220541 20.7287598,44.9409994 L20.7287598,37.6786296 L29.0620931,37.6786296 L29.0620931,44.9409994 C29.0596517,45.5220541 29.5227051,45.9981282 30.1037598,46.0119629 L40.8044433,46.0119629 C41.3907877,46.0005697 41.8636068,45.5273438 41.8745931,44.9409994 L41.8745931,23.9237468 L43.2511394,25.1615397 C43.5599772,25.4402669 44.0067546,25.5041504 44.3819173,25.3234864 L49.0958658,23.0721029 C49.4108073,22.9215495 49.6289062,22.623291 49.6777344,22.2778321 C49.7261556,21.9319661 49.5983886,21.5852865 49.3375651,21.3533529 L25.5875651,0.262858125 C25.192871,-0.08748375 24.5987956,-0.08748375 24.2041016,0.262858125 L0.454101562,21.3533529 C0.192871042,21.5852865 0.0655110417,21.932373 0.114339187,22.278239 C0.163167292,22.6236979 0.382080104,22.9219564 0.697021458,23.0721029 L0.696614583,23.0721029 Z M39.7912598,43.9286296 L31.1454265,43.9286296 L31.1454265,36.607666 C31.1442057,36.3346354 31.0331218,36.072998 30.8369954,35.8825683 C30.641276,35.6925456 30.3767904,35.5887858 30.1037598,35.5952962 L19.6870931,35.5952962 C19.4140625,35.5887858 19.1495769,35.6925456 18.9534505,35.8825683 C18.7577311,36.072998 18.6466471,36.3346354 18.6454265,36.607666 L18.6454265,43.9286296 L9.99959313,43.9286296 L9.99959313,22.0690918 L24.8954265,8.83504229 L39.7912598,22.0690918 L39.7912598,43.9286296 Z M24.8954265,2.43489583 L46.7797852,21.8684896 L44.1052246,23.145345 L25.587972,6.66178385 C25.193278,6.31022135 24.5975749,6.31022135 24.202474,6.66178385 L5.68562823,23.145345 L3.01106771,21.8684896 L24.8954265,2.43489583 Z" id="Shape" fill="#FFFFFF" fill-rule="nonzero"></path>
                    <rect id="Rectangle" stroke="#FFFFFF" stroke-width="2" x="19" y="24" width="11" height="7" rx="1"></rect>
                </g>
            </g>
        </g>
    </g>
</svg>