<?xml version="1.0" encoding="UTF-8"?>
<svg width="23px" height="23px" viewBox="0 0 23 23" version="1.1" xmlns="http://www.w3.org/2000/svg" xmlns:xlink="http://www.w3.org/1999/xlink">
    <!-- Generator: sketchtool 61 (101010) - https://sketch.com -->
    <title>F7C7B824-7D24-4CE3-A6F1-18C0B9CFB00E</title>
    <desc>Created with sketchtool.</desc>
    <g id="Page-1" stroke="none" stroke-width="1" fill="none" fill-rule="evenodd">
        <g id="Artboard" transform="translate(-1207.000000, -3185.000000)" fill="#A0A0A0" fill-rule="nonzero">
            <g id="Group-16" transform="translate(1102.000000, 3176.000000)">
                <g id="facebook-copy" transform="translate(96.000000, 0.000000)">
                    <g id="instagram-logo-(1)" transform="translate(9.000000, 9.000000)">
                        <path d="M16.1575932,0 L6.15832847,0 C2.76262821,0 0,2.76276021 0,6.15846047 L0,16.1577252 C0,19.5535575 2.76262821,22.3161857 6.15832847,22.3161857 L16.1575932,22.3161857 C19.5535575,22.3161857 22.3161857,19.5534255 22.3161857,16.1577252 L22.3161857,6.15846047 C22.3161857,2.76276021 19.5535575,0 16.1575932,0 Z M20.3363176,16.1577252 C20.3363176,18.4617854 18.4617854,20.3361856 16.1577252,20.3361856 L6.15832847,20.3361856 C3.85440029,20.3361856 1.98000015,18.4617854 1.98000015,16.1577252 L1.98000015,6.15846047 C1.98000015,3.85453229 3.85440029,1.98000015 6.15832847,1.98000015 L16.1575932,1.98000015 C18.4616534,1.98000015 20.3363176,3.85453229 20.3363176,6.15846047 L20.3363176,16.1577252 L20.3363176,16.1577252 Z" id="Shape"></path>
                        <path d="M11.1580929,5.40804041 C7.98732061,5.40804041 5.40777641,7.98758461 5.40777641,11.1583569 C5.40777641,14.3289971 7.98732061,16.9084093 11.1580929,16.9084093 C14.3288651,16.9084093 16.9084093,14.3289971 16.9084093,11.1583569 C16.9084093,7.98758461 14.3288651,5.40804041 11.1580929,5.40804041 Z M11.1580929,14.9282771 C9.07922469,14.9282771 7.38777656,13.237093 7.38777656,11.1582249 C7.38777656,9.07922469 9.07909269,7.38790856 11.1580929,7.38790856 C13.237093,7.38790856 14.9284091,9.07922469 14.9284091,11.1582249 C14.9284091,13.237093 13.236961,14.9282771 11.1580929,14.9282771 Z" id="Shape"></path>
                        <path d="M17.1495733,3.72913228 C16.7680933,3.72913228 16.3933453,3.8835723 16.1239332,4.15417232 C15.8532012,4.42345234 15.6975732,4.79833237 15.6975732,5.1811324 C15.6975732,5.56274442 15.8533332,5.93749245 16.1239332,6.20809247 C16.3932133,6.47737249 16.7680933,6.63313251 17.1495733,6.63313251 C17.5323733,6.63313251 17.9059334,6.47737249 18.1765334,6.20809247 C18.4471334,5.93749245 18.6015734,5.56261242 18.6015734,5.1811324 C18.6015734,4.79833237 18.4471334,4.42345234 18.1765334,4.15417232 C17.9072534,3.8835723 17.5323733,3.72913228 17.1495733,3.72913228 Z" id="Path"></path>
                    </g>
                </g>
            </g>
        </g>
    </g>
</svg>