<?xml version="1.0" encoding="UTF-8"?>
<svg width="47px" height="52px" viewBox="0 0 47 52" version="1.1" xmlns="http://www.w3.org/2000/svg" xmlns:xlink="http://www.w3.org/1999/xlink">
    <!-- Generator: sketchtool 61 (101010) - https://sketch.com -->
    <title>7D13C058-C5AC-49C7-98C7-1F018C9DF43E</title>
    <desc>Created with sketchtool.</desc>
    <g id="Page-1" stroke="none" stroke-width="1" fill="none" fill-rule="evenodd">
        <g id="Artboard" transform="translate(-928.000000, -1465.000000)" fill="#000000" fill-rule="nonzero">
            <g id="Group-5-Copy-2" transform="translate(892.000000, 1419.000000)">
                <g id="like-(1)" transform="translate(36.000000, 46.000000)">
                    <path d="M32.2981366,0 C31.7407919,0 31.2888199,0.45197205 31.2888199,1.00931677 L31.2888199,5.65217391 C31.2888199,6.20951863 31.7407919,6.66149068 32.2981366,6.66149068 C32.8554814,6.66149068 33.3074534,6.20951863 33.3074534,5.65217391 L33.3074534,1.00931677 C33.3074534,0.45197205 32.8554814,0 32.2981366,0 Z" id="Path"></path>
                    <path d="M9.08385093,31.4906832 C8.52670807,31.4906832 8.07453416,31.9428571 8.07453416,32.5 C8.07453416,33.0571429 8.52670807,33.5093168 9.08385093,33.5093168 C9.64099379,33.5093168 10.0931677,33.0571429 10.0931677,32.5 C10.0931677,31.9428571 9.64099379,31.4906832 9.08385093,31.4906832 Z" id="Path"></path>
                    <path d="M46.4285714,29.4720497 C46.4285714,27.2459006 44.6174534,25.4347826 42.3913043,25.4347826 L34.8565528,25.4347826 C36.0230202,22.4469022 36.4951786,18.9300388 36.4041382,15.799441 C36.386778,15.2020264 36.3638665,14.8565373 36.3328804,14.6390295 C36.2806988,12.4581988 34.4899689,10.6987578 32.2981366,10.6987578 C30.0719876,10.6987578 28.2608696,12.5098758 28.2608696,14.7360248 L28.2608696,15.7453416 C28.2608696,22.1288665 20.0638043,25.7154736 13.8777019,27.2534705 C13.4099845,26.1842003 12.3423292,25.4347826 11.1024845,25.4347826 L1.00931677,25.4347826 C0.45197205,25.4347826 0,25.8867547 0,26.4440994 L0,50.6677019 C0,51.2250466 0.45197205,51.6770186 1.00931677,51.6770186 L11.1024845,51.6770186 C12.3340528,51.6770186 13.3955512,50.9374922 13.8681134,49.8795264 C14.3803416,50.0109394 14.8558307,50.1350854 15.2947826,50.2497438 C18.8188121,51.1701398 20.7600311,51.6770186 25.4812112,51.6770186 L36.3354037,51.6770186 C38.5615528,51.6770186 40.3726708,49.8659006 40.3726708,47.6397516 C40.3726708,46.8096894 40.1206444,46.0375621 39.6893634,45.3952329 C41.2485559,44.8498991 42.3913043,43.3601475 42.3913043,41.5838509 C42.3913043,40.7568168 42.1454348,39.9821661 41.7154658,39.3369099 C43.267795,38.7906677 44.4099379,37.3043478 44.4099379,35.5279503 C44.4099379,34.6978882 44.1579115,33.9257609 43.7266304,33.2834317 C45.285823,32.7380978 46.4285714,31.2483463 46.4285714,29.4720497 Z M12.1118012,48.6490683 C12.1118012,49.2056056 11.6590217,49.6583851 11.1024845,49.6583851 L2.01863354,49.6583851 L2.01863354,27.4534161 L11.1024845,27.4534161 C11.6590217,27.4534161 12.1118012,27.9061957 12.1118012,28.4627329 L12.1118012,48.6490683 Z M42.3913043,31.4906832 C40.2264208,31.4906832 39.7103571,31.4906832 37.3447205,31.4906832 C36.7873758,31.4906832 36.3354037,31.9426553 36.3354037,32.5 C36.3354037,33.0573447 36.7873758,33.5093168 37.3447205,33.5093168 L40.3726708,33.5093168 C41.4857453,33.5093168 42.3913043,34.4148758 42.3913043,35.5279503 C42.3913043,36.6428416 41.4875621,37.5465839 40.3726708,37.5465839 L35.326087,37.5465839 C34.7687422,37.5465839 34.3167702,37.9985559 34.3167702,38.5559006 C34.3167702,39.1132453 34.7687422,39.5652174 35.326087,39.5652174 L38.3540373,39.5652174 C39.4538898,39.5652174 40.3726708,40.4438276 40.3726708,41.5838509 C40.3726708,42.6987422 39.4689286,43.6024845 38.3540373,43.6024845 C36.1891537,43.6024845 35.6730901,43.6024845 33.3074534,43.6024845 C32.7501087,43.6024845 32.2981366,44.0544565 32.2981366,44.6118012 C32.2981366,45.169146 32.7501087,45.621118 33.3074534,45.621118 L36.3354037,45.621118 C37.4484783,45.621118 38.3540373,46.526677 38.3540373,47.6397516 C38.3540373,48.7528261 37.4484783,49.6583851 36.3354037,49.6583851 L25.4812112,49.6583851 C21.0193245,49.6583851 19.2766382,49.2032842 15.8048913,48.2966149 C15.2962966,48.1637888 14.7384472,48.0181444 14.1304348,47.8631134 L14.1304348,29.2727096 C21.4346584,27.5328494 30.2795031,23.2860481 30.2795031,15.7453416 L30.2795031,14.7360248 C30.2795031,13.6229503 31.1850621,12.7173913 32.2981366,12.7173913 C33.4091925,12.7173913 34.3146506,13.6215373 34.3167702,14.732896 L34.3167702,14.7360248 C34.3167702,15.1746739 34.8642236,20.5580668 32.6689596,25.4347826 L29.2701863,25.4347826 C28.7128416,25.4347826 28.2608696,25.8867547 28.2608696,26.4440994 C28.2608696,27.0014441 28.7128416,27.4534161 29.2701863,27.4534161 C29.9749922,27.4534161 41.2408851,27.4534161 42.3913043,27.4534161 C43.5043789,27.4534161 44.4099379,28.3589752 44.4099379,29.4720497 C44.4099379,30.586941 43.5061957,31.4906832 42.3913043,31.4906832 Z" id="Shape"></path>
                    <path d="M9.08385093,35.5279503 C8.52650621,35.5279503 8.07453416,35.9799224 8.07453416,36.5372671 L8.07453416,44.6118012 C8.07453416,45.169146 8.52650621,45.621118 9.08385093,45.621118 C9.64119565,45.621118 10.0931677,45.169146 10.0931677,44.6118012 L10.0931677,36.5372671 C10.0931677,35.9799224 9.64119565,35.5279503 9.08385093,35.5279503 Z" id="Path"></path>
                    <path d="M24.2236025,12.7173913 L20.1863354,12.7173913 C19.6289907,12.7173913 19.1770186,13.1693634 19.1770186,13.7267081 C19.1770186,14.2840528 19.6289907,14.7360248 20.1863354,14.7360248 L24.2236025,14.7360248 C24.7809472,14.7360248 25.2329193,14.2840528 25.2329193,13.7267081 C25.2329193,13.1693634 24.7809472,12.7173913 24.2236025,12.7173913 Z" id="Path"></path>
                    <path d="M44.4099379,12.7173913 L40.3726708,12.7173913 C39.8153261,12.7173913 39.363354,13.1693634 39.363354,13.7267081 C39.363354,14.2840528 39.8153261,14.7360248 40.3726708,14.7360248 L44.4099379,14.7360248 C44.9672826,14.7360248 45.4192547,14.2840528 45.4192547,13.7267081 C45.4192547,13.1693634 44.9672826,12.7173913 44.4099379,12.7173913 Z" id="Path"></path>
                    <path d="M41.5758773,4.44896739 C41.1816382,4.05493012 40.5427407,4.05493012 40.1484006,4.44896739 L37.2941537,7.30321429 C36.9000155,7.69735248 36.9000155,8.33645186 37.2941537,8.73069099 C37.6884938,9.12482919 38.3272904,9.12472826 38.7216304,8.73069099 L41.5758773,5.8764441 C41.9700155,5.4823059 41.9700155,4.84320652 41.5758773,4.44896739 Z" id="Path"></path>
                    <path d="M27.3021196,7.30321429 L24.4478727,4.44896739 C24.0536335,4.05493012 23.414736,4.05493012 23.020396,4.44896739 C22.6262578,4.84310559 22.6262578,5.48220497 23.020396,5.8764441 L25.8746429,8.73069099 C26.2690839,9.12482919 26.9078804,9.12472826 27.3021196,8.73069099 C27.6962578,8.3365528 27.6962578,7.69745342 27.3021196,7.30321429 Z" id="Path"></path>
                </g>
            </g>
        </g>
    </g>
</svg>