<?xml version="1.0" encoding="UTF-8"?>
<svg width="24px" height="18px" viewBox="0 0 24 18" version="1.1" xmlns="http://www.w3.org/2000/svg" xmlns:xlink="http://www.w3.org/1999/xlink">
    <!-- Generator: sketchtool 61 (101010) - https://sketch.com -->
    <title>E96EE811-97FA-46F4-80C6-27601D7A0794</title>
    <desc>Created with sketchtool.</desc>
    <g id="Page-1" stroke="none" stroke-width="1" fill="none" fill-rule="evenodd">
        <g id="Artboard" transform="translate(-1110.000000, -3187.000000)" fill="#A0A0A0" fill-rule="nonzero">
            <g id="Group-16" transform="translate(1102.000000, 3176.000000)">
                <g id="gmail">
                    <g id="message-closed-envelope" transform="translate(8.695652, 11.304348)">
                        <path d="M19.8793597,0.0557838574 L2.67727097,0.0557838574 C1.2010353,0.0557838574 0,1.20918152 0,2.62685889 L0,14.6169645 C0,16.0346418 1.2010353,17.1880395 2.67727097,17.1880395 L19.8793597,17.1880395 C21.3555954,17.1880395 22.5565717,16.0346418 22.5565717,14.6169645 L22.5565717,2.62685889 C22.5565717,1.20918152 21.3555954,0.0557838574 19.8793597,0.0557838574 Z M19.8793597,14.9181973 L2.67727097,14.9181973 C2.46027472,14.9181973 2.26996027,14.7774685 2.26996027,14.6169645 L2.26996027,4.21236009 L10.0500079,10.7806879 C10.2095085,10.9153956 10.4123374,10.989538 10.6211874,10.989538 L11.9351481,10.989597 C12.1438801,10.989597 12.3468271,10.9153956 12.5063867,10.7806879 L20.2867885,4.21212396 L20.2867885,14.6170825 C20.2867885,14.7774685 20.096297,14.9181973 19.8793597,14.9181973 Z M11.2783154,8.73575207 L3.71124986,2.32562606 L18.8453809,2.32562606 L11.2783154,8.73575207 Z" id="Shape"></path>
                    </g>
                </g>
            </g>
        </g>
    </g>
</svg>