<?xml version="1.0" encoding="UTF-8"?>
<svg width="50px" height="49px" viewBox="0 0 50 49" version="1.1" xmlns="http://www.w3.org/2000/svg" xmlns:xlink="http://www.w3.org/1999/xlink">
    <!-- Generator: sketchtool 61 (101010) - https://sketch.com -->
    <title>7E47B440-9430-4A86-ACD2-A3A1C71DEEC8</title>
    <desc>Created with sketchtool.</desc>
    <g id="Page-1" stroke="none" stroke-width="1" fill="none" fill-rule="evenodd">
        <g id="Artboard" transform="translate(-580.000000, -1470.000000)" fill="#000000" fill-rule="nonzero">
            <g id="Group-5-Copy" transform="translate(544.000000, 1419.000000)">
                <g id="Group" transform="translate(36.000000, 51.000000)">
                    <path d="M49.21875,22.734375 L49.21875,22.734375 C49.21875,22.65625 49.21875,22.578125 49.21875,22.5 L46.71875,8.90625 C46.640625,8.4375 46.171875,8.203125 45.78125,8.28125 L42.34375,9.140625 C42.265625,9.140625 42.1875,9.21875 42.109375,9.21875 C41.953125,9.140625 41.875,9.0625 41.71875,9.0625 L38.28125,9.0625 L34.84375,9.0625 C34.375,9.0625 34.0625,9.375 34.0625,9.84375 L34.0625,22.65625 L17.65625,22.65625 L17.65625,19.296875 L26.171875,19.296875 C27.5,19.296875 28.671875,18.203125 28.671875,16.796875 L28.671875,2.65625 C28.671875,1.328125 27.578125,0.15625 26.171875,0.15625 L2.734375,0.15625 C1.40625,0.15625 0.234375,1.25 0.234375,2.65625 L0.234375,16.875 C0.234375,18.203125 1.328125,19.375 2.734375,19.375 L11.25,19.375 L11.25,22.734375 L0.78125,22.734375 C0.3125,22.734375 0,23.046875 0,23.515625 L0,27.1875 C0,27.65625 0.3125,27.96875 0.78125,27.96875 L1.875,27.96875 L1.875,47.5 C1.875,47.96875 2.1875,48.28125 2.65625,48.28125 L5.390625,48.28125 C5.859375,48.28125 6.171875,47.96875 6.171875,47.5 L6.171875,27.96875 L31.640625,27.96875 L31.640625,47.5 C31.640625,47.96875 31.953125,48.28125 32.421875,48.28125 L47.421875,48.28125 C47.890625,48.28125 48.203125,47.96875 48.203125,47.5 L48.203125,27.96875 L49.21875,27.96875 C49.6875,27.96875 50,27.65625 50,27.1875 L50,23.515625 C50,23.046875 49.6875,22.734375 49.21875,22.734375 Z M45.3125,10.078125 L47.65625,22.734375 L45.625,22.734375 L43.359375,10.546875 L45.3125,10.078125 Z M44.0625,22.734375 L42.421875,22.734375 L42.421875,13.90625 L44.0625,22.734375 Z M40.859375,22.734375 L38.984375,22.734375 L38.984375,10.703125 L40.859375,10.703125 L40.859375,22.734375 Z M35.546875,10.703125 L37.421875,10.703125 L37.421875,22.734375 L35.546875,22.734375 L35.546875,10.703125 Z M2.734375,1.71875 L26.015625,1.71875 C26.484375,1.71875 26.953125,2.109375 26.953125,2.65625 L26.953125,13.828125 L1.875,13.828125 L1.875,2.65625 C1.875,2.109375 2.265625,1.71875 2.734375,1.71875 Z M1.875,16.875 L1.875,15.3125 L26.953125,15.3125 L26.953125,16.875 C26.953125,17.34375 26.5625,17.8125 26.015625,17.8125 C17.890625,17.8125 11.015625,17.8125 2.734375,17.8125 C2.265625,17.8125 1.875,17.421875 1.875,16.875 Z M12.8125,19.375 L16.015625,19.375 L16.015625,22.734375 L12.8125,22.734375 L12.8125,19.375 Z M4.609375,46.71875 L3.4375,46.71875 L3.4375,27.96875 L4.609375,27.96875 L4.609375,46.71875 Z M33.125,46.71875 L33.125,38.125 L46.5625,38.125 L46.5625,46.71875 L33.125,46.71875 Z M46.5625,36.5625 L33.125,36.5625 L33.125,27.96875 L46.5625,27.96875 L46.5625,36.5625 L46.5625,36.5625 Z M48.4375,26.40625 L1.5625,26.40625 L1.5625,24.296875 C6.40625,24.296875 43.4375,24.296875 48.4375,24.296875 L48.4375,26.40625 Z" id="Shape"></path>
                </g>
            </g>
        </g>
    </g>
</svg>